#!OML:ASF F:\VICON\USERDATA\INSTALL\rory3\rory3.ASF
:FULLY-SPECIFIED
:DEGREES
342
root 2.90498 15.2479 -0.916457 404.093 11.7027 6.72876
lowerback 10.8479 1.40224 7.94981
upperback 2.80576 3.08395 8.4776
thorax -3.20189 1.49216 4.03737
lowerneck -10.0657 -10.9687 -11.1469
upperneck 8.10976 -14.449 12.0177
head 5.79373 -6.73124 4.2228
rclavicle 2.8625e-014 -6.36111e-015
rhumerus 29.3777 6.56344 -55.5228
rradius 24.1222
rwrist 11.3836
rhand -28.6306 -61.3487
rfingers 7.12502
rthumb 178.005 -88.6809
lclavicle 2.8625e-014 -6.36111e-015
lhumerus 26.256 8.87821 5.21202
lradius 35.1411
lwrist -0.266714
lhand -44.7952 -774.032
lfingers 7.12502
lthumb -17.5865 -24.8076
rfemur -90.1992 -2.74548 19.5435
rtibia 70.2237
rfoot -19.2578 -16.7363
rtoes 9.55977
lfemur -32.6978 8.0738 -29.0107
ltibia 36.8782
lfoot -38.8381 35.7597
ltoes -12.1717
343
root 2.88371 15.2192 -0.786339 404.622 10.76 6.35018
lowerback 11.9512 1.40008 7.84539
upperback 3.09042 3.18122 8.49693
thorax -3.51881 1.53199 4.08067
lowerneck -10.43 -10.6337 -10.6076
upperneck 7.60977 -13.9756 11.8056
head 5.58862 -6.49897 4.12595
rclavicle -1.90833e-014 -4.13472e-014
rhumerus 31.0545 7.1107 -54.7665
rradius 24.0034
rwrist 11.0922
rhand -28.6712 -61.7755
rfingers 7.12502
rthumb 177.966 -88.2544
lclavicle -1.90833e-014 -4.13472e-014
lhumerus 28.7415 8.53105 5.88625
lradius 35.2934
lwrist -1.25634
lhand -43.9598 -778.284
lfingers 7.12502
lthumb -16.7825 -28.9896
rfemur -90.764 -1.93576 19.7844
rtibia 70.7101
rfoot -19.8506 -16.6612
rtoes 9.67304
lfemur -32.6726 7.73748 -28.8939
ltibia 36.3636
lfoot -36.5088 38.6093
ltoes -15.8327
344
root 2.87431 15.1909 -0.633341 405.695 10.5457 5.83483
lowerback 11.942 1.22288 8.46663
upperback 3.40924 2.98373 8.63173
thorax -3.14519 1.43923 3.91373
lowerneck -11.2697 -10.2921 -10.0246
upperneck 7.14982 -13.4932 11.7628
head 5.48829 -6.23524 4.05284
rclavicle -3.18055e-014 -4.92986e-014
rhumerus 32.4142 6.85469 -54.7832
rradius 24.3284
rwrist 11.9665
rhand -28.4729 -62.306
rfingers 7.12502
rthumb 178.157 -87.7222
lclavicle -3.18055e-014 -4.92986e-014
lhumerus 30.859 8.03938 6.18642
lradius 35.4647
lwrist -3.0241
lhand -44.7721 -775.676
lfingers 7.12502
lthumb -17.5644 -26.4495
rfemur -91.7418 -1.68892 20.7437
rtibia 71.1413
rfoot -20.5447 -16.3371
rtoes 10.1327
lfemur -33.0813 7.50405 -28.3961
ltibia 36.0389
lfoot -36.0625 39.0151
ltoes -16.5838
345
root 2.85868 15.1441 -0.525537 406.894 9.66307 5.88491
lowerback 12.6427 1.08806 8.1627
upperback 3.62898 2.83557 8.57443
thorax -3.30832 1.36288 4.03139
lowerneck -12.3451 -9.94375 -9.5443
upperneck 6.77563 -12.9878 11.7378
head 5.46178 -5.95333 3.99314
rclavicle 0 3.81667e-014
rhumerus 34.1185 7.3384 -53.8973
rradius 24.7147
rwrist 11.8403
rhand -29.0399 -62.6543
rfingers 7.12502
rthumb 177.61 -87.3794
lclavicle 0 3.81667e-014
lhumerus 32.8406 7.64571 6.40724
lradius 35.6514
lwrist -3.99013
lhand -45.3318 -772.652
lfingers 7.12502
lthumb -18.1029 -23.4746
rfemur -93.1016 -1.1612 20.4501
rtibia 71.5848
rfoot -20.5112 -16.3064
rtoes 9.81078
lfemur -33.2111 6.35708 -28.4589
ltibia 35.7899
lfoot -42.0682 33.8992
ltoes -7.57675
346
root 2.8445 15.0934 -0.413763 408.223 8.5827 6.0235
lowerback 13.2512 0.819771 7.54983
upperback 3.68091 2.4794 8.54538
thorax -3.60882 1.18366 4.39017
lowerneck -12.4707 -9.40328 -9.73237
upperneck 6.24282 -12.2141 12.0798
head 5.27161 -5.57246 4.22336
rclavicle 4.13472e-014 2.22639e-014
rhumerus 35.2919 7.91302 -54.069
rradius 25.2659
rwrist 12.6659
rhand -30.0347 -63.17
rfingers 7.12502
rthumb 176.649 -86.8766
lclavicle 4.13472e-014 2.22639e-014
lhumerus 34.265 7.16613 6.55258
lradius 35.8597
lwrist -4.42338
lhand -45.3436 -777.672
lfingers 7.12502
lthumb -18.1143 -28.4953
rfemur -94.5941 -0.599543 19.8895
rtibia 72.0054
rfoot -20.1352 -16.4636
rtoes 8.02929
lfemur -34.0847 5.84612 -29.0143
ltibia 35.6489
lfoot -41.2648 35.0351
ltoes -9.1522
347
root 2.83894 15.0463 -0.285418 409.566 7.78727 6.04717
lowerback 13.8152 0.521701 7.39685
upperback 3.75436 2.12952 8.49094
thorax -3.83462 1.00718 4.47213
lowerneck -12.7071 -8.87684 -9.6502
upperneck 5.58705 -11.4764 12.3553
head 5.04237 -5.20496 4.3821
rclavicle 6.36111e-015 -7.95139e-015
rhumerus 37.4393 9.20636 -52.4609
rradius 25.5209
rwrist 11.4695
rhand -30.0561 -64.4081
rfingers 7.12502
rthumb 176.628 -85.6388
lclavicle 6.36111e-015 -7.95139e-015
lhumerus 35.9616 6.95172 6.74281
lradius 35.9861
lwrist -4.60811
lhand -44.9516 -780.163
lfingers 7.12502
lthumb -17.7371 -30.9523
rfemur -95.9927 -0.194961 19.6132
rtibia 72.3879
rfoot -19.992 -16.632
rtoes 6.39544
lfemur -34.8669 5.05894 -29.1968
ltibia 35.6401
lfoot -41.7436 34.8258
ltoes -8.62059
348
root 2.8357 15.0139 -0.155014 410.883 7.23847 5.89786
lowerback 14.7695 0.189026 7.56961
upperback 3.7078 1.85103 8.50978
thorax -4.39323 0.85713 4.44767
lowerneck -13.0572 -8.33121 -9.3825
upperneck 4.90379 -10.7063 12.3732
head 4.79214 -4.8282 4.42879
rclavicle 2.22639e-014 -2.38542e-015
rhumerus 38.8714 9.28508 -52.7884
rradius 25.6976
rwrist 12.4204
rhand -30.0879 -65.4276
rfingers 7.12502
rthumb 176.598 -84.6198
lclavicle 2.22639e-014 -2.38542e-015
lhumerus 37.5614 6.73796 7.11657
lradius 36.0995
lwrist -4.70343
lhand -44.7207 -780.792
lfingers 7.12502
lthumb -17.5149 -31.5613
rfemur -97.2152 0.22029 19.5948
rtibia 72.6974
rfoot -20.34 -16.6384
rtoes 6.47037
lfemur -35.7775 4.28995 -29.0375
ltibia 35.8218
lfoot -42.1855 34.3907
ltoes -7.13096
349
root 2.83078 14.9701 -0.0271035 412.494 6.61091 5.72198
lowerback 15.4573 -0.00421637 7.62068
upperback 3.67241 1.70047 8.5096
thorax -4.8011 0.773252 4.45323
lowerneck -13.8961 -7.88974 -8.84776
upperneck 4.45346 -10.1001 12.2639
head 4.69129 -4.51129 4.35649
rclavicle -9.54166e-015 -3.26007e-014
rhumerus 40.0094 9.31673 -52.7413
rradius 26.3516
rwrist 12.7609
rhand -30.6931 -66.208
rfingers 7.12502
rthumb 176.013 -83.8495
lclavicle -9.54166e-015 -3.26007e-014
lhumerus 39.3534 6.63985 7.56249
lradius 36.1642
lwrist -4.69502
lhand -44.811 -779.52
lfingers 7.12502
lthumb -17.6017 -30.2971
rfemur -98.7192 0.718212 19.505
rtibia 72.9175
rfoot -20.593 -16.6306
rtoes 6.62701
lfemur -37.1124 3.66581 -28.9662
ltibia 36.0819
lfoot -41.7023 34.6492
ltoes -6.2763
350
root 2.8234 14.876 0.0978437 414.639 5.11866 6.05412
lowerback 15.6328 0.0442612 6.56451
upperback 3.44457 1.6296 8.31057
thorax -5.16553 0.743933 4.84922
lowerneck -14.4558 -7.50435 -8.53912
upperneck 4.2083 -9.58128 12.2627
head 4.6376 -4.23979 4.35089
rclavicle 6.36111e-015 -1.19271e-014
rhumerus 42.3576 10.4046 -50.3605
rradius 26.5213
rwrist 10.6267
rhand -30.3401 -66.6146
rfingers 7.12502
rthumb 176.354 -83.4369
lclavicle 6.36111e-015 -1.19271e-014
lhumerus 41.3118 6.1491 7.61457
lradius 36.0815
lwrist -4.49119
lhand -44.9661 -777.301
lfingers 7.12502
lthumb -17.751 -28.0915
rfemur -101.053 1.24369 18.2293
rtibia 73.2059
rfoot -20.492 -16.7633
rtoes 6.17361
lfemur -38.9705 2.854 -29.9245
ltibia 36.4948
lfoot -40.7138 35.3886
ltoes -6.57531
351
root 2.84694 14.8666 0.237675 416.402 5.18908 5.78675
lowerback 16.159 -0.321443 7.66846
upperback 3.37803 1.41423 8.435
thorax -5.49087 0.615756 4.41762
lowerneck -15.5261 -7.1208 -8.12667
upperneck 4.15647 -9.06724 12.1773
head 4.7173 -3.95203 4.28879
rclavicle -3.02153e-014 7.95139e-015
rhumerus 43.3457 9.92021 -50.8372
rradius 27.0837
rwrist 11.6588
rhand -29.2545 -66.6845
rfingers 7.12502
rthumb 177.402 -83.3516
lclavicle -3.02153e-014 7.95139e-015
lhumerus 43.1358 5.8623 7.3414
lradius 35.9857
lwrist -4.50366
lhand -44.7624 -776.048
lfingers 7.12502
lthumb -17.555 -26.8208
rfemur -102.226 1.25379 18.6695
rtibia 73.0384
rfoot -20.892 -16.8084
rtoes 5.46609
lfemur -40.4356 1.52508 -29.0935
ltibia 36.8314
lfoot -40.1392 35.5189
ltoes -5.77713
352
root 2.86052 14.8305 0.385612 418.862 5.09871 5.49206
lowerback 15.9467 -0.849854 8.26201
upperback 3.25673 0.832034 8.75063
thorax -5.48867 0.323875 4.55387
lowerneck -16.6687 -6.45827 -8.11556
upperneck 4.06418 -8.09787 12.1173
head 4.76895 -3.44569 4.35231
rclavicle -3.65764e-014 -1.11319e-014
rhumerus 46.4525 10.7577 -49.4925
rradius 27.0281
rwrist 10.8509
rhand -29.3556 -67.0878
rfingers 7.12502
rthumb 177.305 -82.9495
lclavicle -3.65764e-014 -1.11319e-014
lhumerus 43.822 5.91917 6.68664
lradius 35.7926
lwrist -4.6499
lhand -44.1958 -776.827
lfingers 7.12502
lthumb -17.0097 -27.5518
rfemur -104.154 1.44503 18.8767
rtibia 72.8126
rfoot -21.159 -16.8726
rtoes 4.45664
lfemur -42.5868 0.289932 -28.2538
ltibia 37.1737
lfoot -40.2758 34.6389
ltoes -3.66781
